<?xml version="1.0" encoding="UTF-8"?>
<svg id="Layer_1" data-name="Layer 1" xmlns="http://www.w3.org/2000/svg" viewBox="0 0 466.78 186.19">
  <path d="M0,.04C4.65.11,9.37-.24,13.96.34c11.31,1.42,19.78,9.35,22.23,20.43,7.93,35.79,15.81,71.59,23.71,107.39.17.76.37,1.5.94,2.31.45-2.04.92-4.08,1.34-6.12,6.6-31.86,13-63.76,19.85-95.57,3.05-14.17,11.55-24.07,26.06-27.5,17.99-4.26,36.11,7.14,40.35,25.37,3.34,14.34,6.1,28.82,9.09,43.24,4.12,19.87,8.22,39.75,12.33,59.62.11.5.27,1,.53,1.94,1.42-6.42,2.76-12.42,4.08-18.41,6.81-30.81,13.58-61.62,20.47-92.42C197.73,8.17,208.05.07,220.78.06c3.34,0,6.68,0,10.27,0-.96,4.39-1.87,8.59-2.8,12.78-10.97,49.67-21.94,99.33-32.91,149-1.68,7.6-3.36,15.21-5.1,22.8-.13.55-.75,1.4-1.14,1.4-6.1.01-12.26.46-18.29-.27-13.29-1.6-23.12-11.16-25.84-24.27-8.68-41.93-17.36-83.85-26.04-125.78-.5-2.43-1.64-3.63-3.46-3.62-1.83,0-2.94,1.19-3.48,3.83-4.25,20.51-8.48,41.03-12.73,61.54-4.46,21.54-8.87,43.09-13.4,64.61-3,14.27-15.2,24-29.8,24.01h-14.95c-1.1-4.95-2.19-9.84-3.28-14.74C28.17,127.65,18.51,83.93,8.85,40.21,6.05,27.56,3.25,14.9.43,2.25c-.08-.36-.29-.69-.43-1.03V.04Z"/>
  <path d="M306.74.08c9.17,0,17.97-.22,26.76.07,7.38.24,13.05,3.92,17.1,10.08,9.94,15.11,19.89,30.21,29.84,45.32,1.16,1.75,2.31,3.5,3.46,5.25,2.18,3.31,3.46,3.3,5.68-.08,10.89-16.53,21.83-33.02,32.62-49.6C427.09,3.58,433.77-.15,442.77.03c7.22.14,14.44.03,21.66.03h2.34c-20.61,31.3-41.02,62.3-61.44,93.31,20.32,30.86,40.57,61.61,61.01,92.64-.84.05-1.44.11-2.04.11-7.61,0-15.23-.03-22.84.01-8.22.05-14.53-3.41-19.02-10.22-8.99-13.62-17.96-27.25-26.93-40.88-2.02-3.07-4.03-6.13-6.05-9.2-2.09-3.17-3.41-3.19-5.46-.06-11,16.69-22,33.37-32.97,50.08-3.7,5.63-8.76,9.11-15.46,10.08-1.49.21-3.01.18-4.52.18-7.87.01-15.74,0-24,0,.58-.91,1-1.6,1.45-2.28,19.43-29.5,38.84-59,58.31-88.47.96-1.46,1.07-2.41.05-3.94-19.63-29.68-39.18-59.41-58.75-89.13-.42-.64-.81-1.3-1.37-2.22h0Z"/>
  <path d="M284.42.06v166.3c0,10.37-6.44,18.42-16.18,19.55-4.72.55-9.55.09-14.52.09-.03-.62-.09-1.24-.09-1.87,0-54.8,0-109.59,0-164.39,0-9.48,5.57-17.2,14.17-19.06,3.41-.74,7.04-.48,10.57-.61,1.95-.07,3.9-.01,6.05-.01h0Z"/>
</svg>